/vscmnt/brussel_pixiu_data/_data_brussel/112/vsc11236/PredSimResults/SUBJ09opt3D/expIG/worker_14.mot
version=1
nRows=5
nColumns=50
inDegrees=yes
endheader
                time	         pelvis_tilt	         pelvis_list	     pelvis_rotation	           pelvis_tx	           pelvis_ty	           pelvis_tz	       hip_flexion_r	     hip_adduction_r	      hip_rotation_r	        knee_angle_r	       ankle_angle_r	         mtp_angle_r	       hip_flexion_l	     hip_adduction_l	      hip_rotation_l	        knee_angle_l	       ankle_angle_l	         mtp_angle_l	    lumbar_extension	      lumbar_bending	     lumbar_rotation	 ercspn_r/activation	 intobl_r/activation	 extobl_r/activation	    abd_r/activation	    add_r/activation	hamstrings_r/activation	bifemsh_r/activation	glut_max_r/activation	iliopsoas_r/activation	rect_fem_r/activation	  vasti_r/activation	gastroc_r/activation	 soleus_r/activation	tib_ant_r/activation	 ercspn_l/activation	 intobl_l/activation	 extobl_l/activation	    abd_l/activation	    add_l/activation	hamstrings_l/activation	bifemsh_l/activation	glut_max_l/activation	iliopsoas_l/activation	rect_fem_l/activation	  vasti_l/activation	gastroc_l/activation	 soleus_l/activation	tib_ant_l/activation	
          0.48307629	         -6.68407005	          4.36554901	         -9.58576493	          0.91784495	          0.96606733	          0.00437506	        -17.38934757	         -5.95400431	         -0.85701837	         -8.81861734	         -0.39282944	         42.86828690	         34.45998176	          0.76708041	         -9.10766915	         -6.16653699	          7.27915536	          0.30490098	        -11.13470500	         -4.21910997	          9.60428184	          0.04319621	          0.01000016	          0.01000041	          0.02109644	          0.11614121	          0.02368338	          0.28351210	          0.01347981	          0.52978635	          0.01000008	          0.01000006	          0.33872890	          0.16759338	          0.02036968	          0.09441430	          0.12564433	          0.01347980	          0.02441732	          0.40066501	          0.17425900	          0.21008395	          0.27088065	          0.18603322	          0.01000008	          0.01000008	          0.02449379	          0.01011052	          0.43048246	
          0.49273782	         -6.61371637	          4.54177440	         -9.54394194	          0.94075879	          0.96374531	          0.00390339	        -17.36386848	         -6.32648544	         -1.37181240	        -11.17134411	         -1.92422521	         44.59392635	         34.47469368	          1.02968388	         -9.23097272	         -8.55651752	          6.59970159	          0.24083305	        -10.65533631	         -4.58072416	          9.74769797	          0.11590004	          0.01000008	          0.01000007	          0.01817053	          0.10003337	          0.02039869	          0.24419119	          0.01161027	          0.61430840	          0.01000004	          0.01000002	          0.29174977	          0.14434945	          0.01754456	          0.08131983	          0.10821871	          0.01161027	          0.18886575	          0.40203817	          0.15009061	          0.18094691	          0.42256100	          0.16023183	          0.01000005	          0.01000003	          0.02109671	          0.01161029	          0.50439873	
          0.50239934	         -6.53386720	          4.71428229	         -9.45385060	          0.96343695	          0.96180144	          0.00332806	        -16.90800285	         -6.71010524	         -1.89008171	        -14.29625187	         -3.32022522	         45.53115783	         34.42546232	          1.31553498	         -9.29149264	        -10.82490907	          5.87659530	          0.21212361	        -10.22063475	         -4.93645131	          9.83037458	          0.11106943	          0.01000001	          0.01000008	          0.01565041	          0.08615953	          0.01756955	          0.21032377	          0.01000002	          0.58883770	          0.01000005	          0.01000000	          0.25128629	          0.12432928	          0.01511126	          0.08678001	          0.09320963	          0.01000005	          0.24077519	          0.34627937	          0.12927418	          0.15585096	          0.50635959	          0.13800889	          0.01000007	          0.04657876	          0.01817077	          0.01000007	          0.58034020	
          0.51206087	         -6.44681987	          4.88166339	         -9.31243289	          0.98557351	          0.96046330	          0.00263716	        -15.95964128	         -7.11349676	         -2.39672177	        -18.22329636	         -4.75414965	         45.65566197	         34.43432706	          1.62254213	         -9.28918191	        -13.14561324	          5.17846179	          0.15560620	         -9.86758694	         -5.28728225	          9.84336366	          0.18780040	          0.01000002	          0.01000003	          0.01347982	          0.13869557	          0.01513279	          0.18115351	          0.01000000	          0.50717041	          0.01000004	          0.01000000	          0.21643479	          0.10708575	          0.01301545	          0.08994401	          0.08028218	          0.01000004	          0.27237424	          0.35636687	          0.11134484	          0.13423563	          0.51507833	          0.11886810	          0.01000010	          0.23794636	          0.01565064	          0.01000007	          0.62624981	
          0.52172240	         -6.35728552	          5.02809328	         -9.12537623	          1.00709287	          0.95985986	          0.00186980	        -14.53342495	         -7.52775055	         -2.88982668	        -22.82687928	         -6.48354429	         44.97383625	         34.41313470	          1.93749120	         -9.25730429	        -15.41890798	          4.83769413	          0.08672926	         -9.60045136	         -5.61697983	          9.79176691	          0.20936869	          0.01000001	          0.01000006	          0.01161027	          0.18391777	          0.01303400	          0.15602895	          0.01000000	          0.43682973	          0.01000003	          0.01000000	          0.18641692	          0.09223377	          0.01121031	          0.07746950	          0.06914766	          0.01000003	          0.32166740	          0.30694167	          0.09590217	          0.11561817	          0.50109377	          0.10238200	          0.01000021	          0.43301991	          0.01348004	          0.01000853	          0.63853630	
